<svg xmlns="http://www.w3.org/2000/svg" width="99.999" height="93.8" viewBox="0 0 99.999 93.8">
  <g id="Group_2" data-name="Group 2" transform="translate(-1117 -610)">
    <g id="icon-glasses" transform="translate(1116.999 622.012)">
      <path id="Path_1" data-name="Path 1" d="M35.491,98.938A21.483,21.483,0,1,1,56.975,77.454,21.483,21.483,0,0,1,35.491,98.938Zm0-38.967A17.483,17.483,0,1,0,52.975,77.454,17.483,17.483,0,0,0,35.491,59.971Z" transform="translate(-14.008 -28.951)" fill="#650300"/>
      <path id="Path_2" data-name="Path 2" d="M92.346,98.938A21.483,21.483,0,1,1,113.83,77.454,21.483,21.483,0,0,1,92.346,98.938Zm0-38.967A17.483,17.483,0,1,0,109.83,77.454,17.483,17.483,0,0,0,92.346,59.971Z" transform="translate(-13.83 -28.951)" fill="#650300"/>
      <g id="Group_1" data-name="Group 1" transform="translate(1.967)">
        <path id="Path_3" data-name="Path 3" d="M17.976,70.566a2,2,0,0,1-1.894-2.644l10.964-32.2c1.24-4.928,7.281-7.728,13.519-6.25a2,2,0,1,1-.922,3.892c-4.068-.964-8.066.584-8.729,3.379l-.053.184L19.869,69.211a2,2,0,0,1-1.893,1.355Z" transform="translate(-15.975 -29.076)" fill="#650300"/>
        <path id="Path_4" data-name="Path 4" d="M109.714,70.566a2,2,0,0,1-1.894-1.355L96.773,36.748a4.552,4.552,0,0,0-2.812-3,9.473,9.473,0,0,0-5.917-.382,2,2,0,1,1-.922-3.892,13.482,13.482,0,0,1,8.439.609,8.458,8.458,0,0,1,5.079,5.642L111.606,67.92a2,2,0,0,1-1.892,2.643Z" transform="translate(-15.797 -29.076)" fill="#650300"/>
      </g>
      <path id="Path_5" data-name="Path 5" d="M72.86,79.454a1.979,1.979,0,0,1-.906-.219,20.242,20.242,0,0,0-8.243-1.651,17.2,17.2,0,0,0-7.738,1.6,2,2,0,1,1-1.994-3.467,20.792,20.792,0,0,1,9.732-2.136,23.826,23.826,0,0,1,10.06,2.088,2,2,0,0,1-.911,3.781Z" transform="translate(-13.919 -28.989)" fill="#650300"/>
    </g>
    <rect id="Rectangle_1" data-name="Rectangle 1" width="99.87" height="93.8" transform="translate(1117 610)" fill="none"/>
  </g>
</svg>
